<?xml version="1.0" encoding="UTF-8"?>
<svg enable-background="new 0 0 595.3 706.8" version="1.1" viewBox="0 0 595.3 706.8" xml:space="preserve" xmlns="http://www.w3.org/2000/svg">
<style type="text/css">
	.st0{fill:url(#f);}
	.st1{fill:url(#e);}
	.st2{fill:url(#d);}
	.st3{fill:url(#c);}
	.st4{fill:url(#b);}
	.st5{fill:url(#a);}
</style>
	<linearGradient id="f" x1="185.83" x2="227.05" y1="324.44" y2="324.44" gradientUnits="userSpaceOnUse">
		<stop stop-color="#663C97" offset="0"/>
		<stop stop-color="#464DA0" offset="1"/>
		<stop stop-color="#71297E" offset="1"/>
	</linearGradient>
	<path class="st0" d="M222.9,281c-10.1,6.6-21.7,13.6-33.8,20.9v66c10.9-5.5,22.1-11.1,33.8-16.6V281z"/>
	<linearGradient id="e" x1="44.609" x2="128.43" y1="379.18" y2="379.18" gradientUnits="userSpaceOnUse">
		<stop stop-color="#663C97" offset="0"/>
		<stop stop-color="#464DA0" offset="1"/>
		<stop stop-color="#71297E" offset="1"/>
	</linearGradient>
	<path class="st1" d="m54.1 403c4.6 8.8 13.4 13.8 22.5 13.8 3.8 0 7.7-0.9 11.4-2.7 7.7-3.9 18.5-9.3 31.6-15.9 0.2-26.5 0.3-46.7 0.3-54.7v-2.1c-26.8 13.3-47.1 23.5-54.9 27.4-12.4 6.5-17.4 21.9-10.9 34.2z"/>
	<linearGradient id="d" x1="227.49" x2="289.38" y1="291.84" y2="291.84" gradientUnits="userSpaceOnUse">
		<stop stop-color="#663C97" offset="0"/>
		<stop stop-color="#464DA0" offset="1"/>
		<stop stop-color="#71297E" offset="1"/>
	</linearGradient>
	<path class="st2" d="m232.4 396.4c0 14 11.3 25.3 25.2 25.3h0.3c14.1-0.2 25.3-11.3 25.3-25.2v-209.2c0-2.2-0.3-4.4-0.8-6.5-2.9-11.2-13.1-18.7-24.4-18.7-1.1 0-2.2 0.1-3.4 0.2-12.8 1.7-22.1 12.2-22.1 25v104.5c-0.1 34.8-0.1 69.7-0.1 104.6z"/>
	<linearGradient id="c" x1="-52.418" x2="664.8" y1="290.73" y2="290.73" gradientUnits="userSpaceOnUse">
		<stop stop-color="#663C97" offset="0"/>
		<stop stop-color="#464DA0" offset="1"/>
		<stop stop-color="#71297E" offset="1"/>
	</linearGradient>
	<path class="st3" d="m592.2 234.4c-1.6-12.2-9.7-19-22-22.2-9.8-2.5-20-3-30.2-3.1-24.1-0.1-47.9 3.8-71.5 8.4-34.1 6.6-67.9 15.1-101.2 25.5-10 3.1-20 6.4-30 9.5 0-0.1-0.1-0.3-0.1-0.4l1.8-1.5c19.3-16.5 38.6-33 58-49.4 42.7-36 81.1-75.7 116.9-117.5 9.7-11.3 18.2-23.5 22.5-37.2 6.5-20.7-0.8-33.7-21.9-39.4-8.8-2.4-18-2.9-27.3-3-20-0.1-39.9 3.2-59.4 7.2-20.4 4.2-50 11.7-70 17.8-32 9.8-71.6 26.7-107 41-18 7-37.2 16.1-55.2 23l-67.9 27.7c-90.1 38.6-116.4 10.8-116.4 10.8s0 0.1 0.1 0.3c-0.2-0.3-0.3-0.5-0.4-0.8-17.5 34.6-2.9 97.4 98.5 52.5 15.9-6.2 32.1-12.9 48-19.1 30.6-11.9 60.8-26.6 91.4-38.5 6.7-2.8 32.5-13.4 63.8-24.8 6.5-2.5 12.9-5 19.4-7.5 19.9-6.5 39.7-13 59.9-18 22-5.8 41.2-9.1 52.9-7.6 1.2 0.1 2.4 0.2 3.5 0.4 5.3 0.7 8.1 3.5 7.6 7.2-0.2 5.8-9.4 24.6-93.3 94.4-6.1 5.3-12.2 10.5-18.3 15.8-9.4 8.1-18.5 16.1-27.7 24.1l-7.7 6.8-0.1 0.1-3.6 3.2c-0.3 0.3-0.5 0.5-0.9 0.8 0 0-0.4 0.4-0.9 0.8l-7 5.3c-0.2 0.2-1.2 1.1-1.5 1.3v88.7c29.7-10.1 174-58.3 189.5-44.2 1.2 1.6 19.5 13-148.3 127.9-6.6 5-13 10-19.6 15-8.1 6.2-16.2 12.4-24.3 18.5-30.3 22-60.5 44-90.8 66-4.4 3.2-8.8 6.3-13.1 9.5-0.2 24-0.3 46.9-0.4 67.9l320.2-236.2c19.5-16.6 38.1-34.1 55.4-52.8 9.8-10.6 18.6-21.6 24.4-34.4 2.9-6.5 5.1-13 4.2-19.8z"/>
	<linearGradient id="b" x1="59.329" x2="125.6" y1="601.43" y2="601.43" gradientUnits="userSpaceOnUse">
		<stop stop-color="#663C97" offset="0"/>
		<stop stop-color="#464DA0" offset="1"/>
		<stop stop-color="#71297E" offset="1"/>
	</linearGradient>
	<path class="st4" d="m70.5 597.8c-7.7 9.6-7.9 23.2-0.6 33.1 0.7 1 1.5 1.9 2.3 2.8 8.9 9.2 22.5 11 33.3 4.6l12.8-9.5c0.1-19.2 0.3-42.7 0.5-67.9l-43.3 32c-1.8 1.4-3.6 3.1-5 4.9z"/>
	<linearGradient id="a" x1="122.3" x2="187.2" y1="454.69" y2="454.69" gradientUnits="userSpaceOnUse">
		<stop stop-color="#663C97" offset="0"/>
		<stop stop-color="#464DA0" offset="1"/>
		<stop stop-color="#71297E" offset="1"/>
	</linearGradient>
	<path class="st5" d="m179.8 229.9c-2.9-11.2-13.1-18.7-24.4-18.7-1.1 0-2.2 0.1-3.4 0.2-12.8 1.7-22.1 12.2-22.1 25v104.5c0 21.2-0.9 126.1-1.7 213.1-0.2 24.9-0.4 48.3-0.5 67.9-0.2 24.8-0.3 43.4-0.3 51.1 0 14 11.3 25.3 25.2 25.3h0.3c14.1-0.2 25.3-11.3 25.3-25.2 0-17.5 0.2-49.5 0.4-88.6 0.1-21 0.3-44 0.4-67.9 0.7-108.9 1.7-237.3 1.6-280.1 0-2.3-0.2-4.5-0.8-6.6z"/>
</svg>
