<?xml version="1.0" encoding="UTF-8"?>
<svg enable-background="new 0 0 595.3 703.9" version="1.1" viewBox="0 0 595.3 703.9" xml:space="preserve" xmlns="http://www.w3.org/2000/svg">
<style type="text/css">
	.st0{fill:url(#f);}
	.st1{fill:url(#e);}
	.st2{fill:url(#d);}
	.st3{fill:url(#c);}
	.st4{fill:url(#b);}
	.st5{fill:url(#a);}
</style>
	<linearGradient id="f" x1="185.19" x2="226.34" y1="325.5" y2="325.5" gradientUnits="userSpaceOnUse">
		<stop stop-color="#663C97" offset="0"/>
		<stop stop-color="#464DA0" offset="1"/>
		<stop stop-color="#71297E" offset="1"/>
	</linearGradient>
	<path class="st0" d="m222.2 282.1c-10.1 6.6-21.7 13.6-33.7 20.9v65.9c10.9-5.5 22.1-11.1 33.7-16.6v-70.2z"/>
	<linearGradient id="e" x1="44.237" x2="127.9" y1="380.15" y2="380.15" gradientUnits="userSpaceOnUse">
		<stop stop-color="#663C97" offset="0"/>
		<stop stop-color="#464DA0" offset="1"/>
		<stop stop-color="#71297E" offset="1"/>
	</linearGradient>
	<path class="st1" d="m53.7 404c4.6 8.8 13.4 13.8 22.5 13.8 3.8 0 7.7-0.9 11.4-2.7 7.7-3.9 18.4-9.3 31.5-15.9 0.2-26.5 0.3-46.6 0.3-54.6v-2.1c-26.7 13.3-47 23.5-54.8 27.4-12.4 6.4-17.3 21.7-10.9 34.1z"/>
	<linearGradient id="d" x1="226.78" x2="288.55" y1="292.96" y2="292.96" gradientUnits="userSpaceOnUse">
		<stop stop-color="#663C97" offset="0"/>
		<stop stop-color="#464DA0" offset="1"/>
		<stop stop-color="#71297E" offset="1"/>
	</linearGradient>
	<path class="st2" d="m231.7 397.3c0 14 11.3 25.2 25.1 25.2h0.3c14.1-0.2 25.2-11.3 25.2-25.2v-208.8c0-2.2-0.3-4.4-0.8-6.5-2.9-11.1-13.1-18.7-24.4-18.7-1.1 0-2.2 0.1-3.3 0.2-12.7 1.7-22 12.2-22 24.9v104.3c-0.1 35-0.1 69.8-0.1 104.6z"/>
	<linearGradient id="c" x1="-52.609" x2="663.27" y1="291.86" y2="291.86" gradientUnits="userSpaceOnUse">
		<stop stop-color="#663C97" offset="0"/>
		<stop stop-color="#464DA0" offset="1"/>
		<stop stop-color="#71297E" offset="1"/>
	</linearGradient>
	<path class="st3" d="m590.8 235.6c-1.6-12.2-9.7-19-22-22.2-9.8-2.5-19.9-3-30.2-3.1-24-0.1-47.8 3.8-71.4 8.4-34.1 6.6-67.8 15.1-101 25.4-10 3.1-19.9 6.3-29.9 9.5 0-0.1-0.1-0.3-0.1-0.4l1.8-1.5c19.3-16.5 38.5-33 57.9-49.3 42.6-36 81-75.5 116.7-117.2 9.7-11.3 18.1-23.4 22.4-37.2 6.5-20.7-0.8-33.6-21.8-39.4-8.8-2.4-18-2.9-27.2-3-20-0.1-39.8 3.2-59.3 7.2-20.4 4.2-49.9 11.7-69.9 17.8-32 9.8-71.5 26.6-106.8 40.9-18 7-37.2 16-55.1 23l-67.8 27.6c-90 38.7-116.2 10.9-116.2 10.9s0 0.1 0.1 0.3c-0.2-0.3-0.3-0.5-0.4-0.8-17.5 34.5-2.9 97.2 98.3 52.4 15.9-6.2 32.1-12.9 47.9-19 30.5-11.9 60.7-26.6 91.3-38.4 6.7-2.8 32.5-13.3 63.7-24.7 6.4-2.5 12.9-5 19.3-7.5 19.8-6.5 39.6-13 59.8-18 22-5.7 41.2-9.1 52.8-7.6 1.2 0.1 2.4 0.2 3.5 0.4 5.3 0.7 8.1 3.5 7.6 7.2-0.2 5.7-9.4 24.6-93.1 94.3-6.1 5.2-12.2 10.5-18.3 15.7-9.4 8.1-18.5 16.1-27.7 24.1l-7.7 6.8-0.1 0.1-3.6 3.2c-0.3 0.3-0.5 0.5-0.9 0.8 0 0-0.4 0.4-0.9 0.8l-7 5.3c-0.2 0.2-1.2 1.1-1.5 1.3v88.5c29.6-10.1 173.7-58.2 189.2-44.1 1.2 1.6 19.5 13-148 127.6-6.6 5-13 10-19.6 15-8.1 6.2-16.1 12.3-24.2 18.5-30.3 21.9-60.4 43.9-90.7 65.8-4.4 3.2-8.7 6.3-13.1 9.5-0.2 23.9-0.3 46.8-0.4 67.8l319.6-235.8c19.5-16.5 38-34 55.3-52.7 9.8-10.5 18.6-21.6 24.4-34.3 3-6.6 5.2-13 4.3-19.9z"/>
	<linearGradient id="b" x1="58.93" x2="125.08" y1="601.98" y2="601.98" gradientUnits="userSpaceOnUse">
		<stop stop-color="#663C97" offset="0"/>
		<stop stop-color="#464DA0" offset="1"/>
		<stop stop-color="#71297E" offset="1"/>
	</linearGradient>
	<path class="st4" d="m70.1 598.3c-7.7 9.5-7.9 23.1-0.6 33 0.7 1 1.5 1.9 2.3 2.7 8.9 9.2 22.5 11 33.2 4.6l12.8-9.4c0.1-19.2 0.3-42.6 0.5-67.8l-43.2 32c-1.8 1.4-3.6 3.1-5 4.9z"/>
	<linearGradient id="a" x1="121.78" x2="186.56" y1="455.51" y2="455.51" gradientUnits="userSpaceOnUse">
		<stop stop-color="#663C97" offset="0"/>
		<stop stop-color="#464DA0" offset="1"/>
		<stop stop-color="#71297E" offset="1"/>
	</linearGradient>
	<path class="st5" d="m179.2 231.1c-2.9-11.1-13.1-18.7-24.4-18.7-1.1 0-2.2 0.1-3.3 0.2-12.7 1.7-22 12.2-22 24.9v104.3c0 21.1-0.9 125.8-1.7 212.7-0.2 24.9-0.4 48.3-0.5 67.8-0.2 24.8-0.3 43.4-0.3 51 0 14 11.3 25.2 25.1 25.2h0.3c14.1-0.2 25.2-11.3 25.2-25.2 0-17.5 0.2-49.4 0.4-88.5 0.1-20.9 0.3-43.9 0.4-67.8 0.7-108.7 1.7-236.8 1.6-279.5 0-2.1-0.3-4.3-0.8-6.4z"/>
</svg>
