<?xml version="1.0" encoding="UTF-8"?>
<svg enable-background="new 0 0 595.3 841.9" version="1.1" viewBox="0 0 595.3 841.9" xml:space="preserve" xmlns="http://www.w3.org/2000/svg">
<style type="text/css">
	.st0{fill:#4E4E4E;}
	.st1{fill:url(#f);}
	.st2{fill:url(#e);}
	.st3{fill:url(#d);}
	.st4{fill:url(#c);}
	.st5{fill:url(#b);}
	.st6{fill:url(#a);}
</style>
	<path class="st0" d="m91.4 830.1c0 2.7-0.8 4.8-2.5 6.3-1.6 1.5-3.9 2.2-6.7 2.2h-11.9v-31.4h11.6c1.8 0 3.3 0.3 4.7 1s2.4 1.6 3.2 2.9c0.8 1.2 1.2 2.7 1.2 4.4s-0.4 3.1-1.3 4.4-2.1 2.2-3.6 2.7c1.7 0.6 3 1.5 4 2.9 0.8 1.2 1.3 2.8 1.3 4.6zm-2.9-14.7c0-1.4-0.3-2.5-0.9-3.4s-1.4-1.6-2.5-2c-1-0.4-2.2-0.6-3.6-0.6h-8.9v12.2h8.9c2 0 3.7-0.5 5-1.5 1.4-1.1 2-2.6 2-4.7zm0.5 14.7c0-1.3-0.3-2.5-0.9-3.4-0.6-1-1.4-1.7-2.5-2.2s-2.3-0.8-3.8-0.8h-9.2v12.9h9.2c1.4 0 2.7-0.3 3.8-0.8s1.9-1.3 2.5-2.2c0.6-1 0.9-2.2 0.9-3.5z"/>
	<path class="st0" d="m117.7 838.6h-2.4v-31.4h2.4v31.4z"/>
	<path class="st0" d="m160.4 809.4h-9.4v29.3h-2.4v-29.3h-9.3v-2.1h21.1v2.1z"/>
	<path class="st0" d="m202.2 829.7c-0.3 1.9-1 3.5-2 4.9s-2.2 2.4-3.7 3.2c-1.5 0.7-3.2 1.1-5 1.1-1.5 0-2.9-0.3-4.3-0.8-1.4-0.6-2.6-1.3-3.6-2.4-0.9-0.9-1.6-1.9-2-2.9s-0.7-2.2-0.8-3.6c-0.1-1.3-0.1-3.4-0.1-6.2s0.1-4.9 0.1-6.2c0.1-1.3 0.4-2.5 0.8-3.6 0.4-1 1.1-2 2-2.9 1-1 2.2-1.8 3.6-2.4s2.8-0.8 4.3-0.8c1.8 0 3.5 0.4 5 1.1s2.7 1.8 3.7 3.2 1.6 3 2 4.9h-2.4c-0.5-2.2-1.4-3.9-2.9-5.2s-3.3-1.9-5.3-1.9c-1.1 0-2.2 0.2-3.2 0.6s-1.9 1-2.7 1.8c-0.6 0.6-1 1.1-1.3 1.7s-0.5 1.4-0.7 2.3-0.3 2-0.3 3.1c0 1.2-0.1 2.6-0.1 4.3 0 2.5 0 4.4 0.1 5.7s0.3 2.4 0.7 3.3c0.3 0.9 0.9 1.7 1.6 2.4 0.8 0.8 1.7 1.4 2.7 1.8s2.1 0.6 3.2 0.6c1.4 0 2.7-0.3 3.8-0.9s2.1-1.4 2.9-2.5 1.3-2.3 1.6-3.7h2.3z"/>
	<path class="st0" d="m246.1 822.9c0 2.8 0 4.9-0.2 6.2-0.1 1.3-0.4 2.5-0.8 3.6-0.4 1-1.1 2-2 2.9-1 1-2.2 1.8-3.6 2.4s-2.8 0.8-4.3 0.8-2.9-0.3-4.3-0.8c-1.4-0.6-2.6-1.3-3.6-2.4-0.9-0.9-1.6-1.9-2-2.9s-0.7-2.2-0.8-3.6c-0.1-1.3-0.2-3.4-0.2-6.2s0.1-4.9 0.2-6.2 0.4-2.5 0.8-3.6c0.4-1 1.1-2 2-2.9 1-1 2.2-1.8 3.6-2.4s2.8-0.8 4.3-0.8 2.9 0.3 4.3 0.8c1.4 0.6 2.5 1.3 3.6 2.4 0.9 0.9 1.6 1.9 2 2.9s0.7 2.2 0.8 3.6c0.1 1.3 0.2 3.4 0.2 6.2zm-2.4 0c0-2.5-0.1-4.4-0.2-5.7s-0.3-2.4-0.7-3.3c-0.3-0.9-0.9-1.7-1.6-2.4-0.8-0.8-1.7-1.4-2.7-1.8s-2.1-0.6-3.2-0.6-2.2 0.2-3.2 0.6-1.9 1-2.7 1.8c-0.6 0.6-1 1.1-1.3 1.7s-0.5 1.4-0.7 2.3-0.3 2-0.3 3.1c0 1.2-0.1 2.6-0.1 4.3 0 2.5 0.1 4.4 0.2 5.7s0.3 2.4 0.7 3.3c0.3 0.9 0.9 1.7 1.6 2.4 0.8 0.8 1.7 1.4 2.7 1.8s2.1 0.6 3.2 0.6 2.2-0.2 3.2-0.6 1.9-1 2.7-1.8c0.7-0.7 1.3-1.6 1.6-2.5s0.6-2 0.7-3.3c0-1.2 0.1-3.1 0.1-5.6z"/>
	<path class="st0" d="m272.3 838.6h-2.4v-31.4h2.4v31.4z"/>
	<path class="st0" d="m320.3 838.6h-2.4l-18.1-27.3v27.3h-2.4v-31.4h2.4l18.1 27.2v-27.2h2.4v31.4z"/>
	<path class="st0" d="m393.2 838.6h-2.4v-14.8h-16.3v14.8h-2.4v-31.4h2.4v14.5h16.3v-14.5h2.4v31.4z"/>
	<path class="st0" d="m439.4 828.5c0 2-0.5 3.8-1.4 5.4s-2.2 2.8-3.8 3.7-3.5 1.3-5.6 1.3-3.9-0.4-5.6-1.3c-1.6-0.9-2.9-2.1-3.8-3.7s-1.4-3.4-1.4-5.4v-21.2h2.4v20.9c0 1.7 0.3 3.2 1 4.5s1.7 2.3 3 3 2.7 1.1 4.4 1.1c1.6 0 3.1-0.4 4.4-1.1s2.3-1.7 3-3 1-2.8 1-4.5v-20.9h2.4v21.2z"/>
	<path class="st0" d="m482.5 830.2c0 1.3-0.2 2.5-0.7 3.6s-1.2 2-2.1 2.8-2 1.3-3.4 1.7c-1.3 0.4-2.8 0.6-4.4 0.6-1.5 0-2.9-0.1-4.1-0.4s-2.4-0.7-3.4-1.4c-1-0.6-2-1.4-3-2.3l1.7-1.7c0.9 0.9 1.9 1.7 2.7 2.2 0.9 0.5 1.8 0.9 2.8 1.1s2.1 0.3 3.4 0.3c1.6 0 3.1-0.3 4.3-0.8s2.1-1.3 2.8-2.2c0.7-1 1-2.1 1-3.5 0-1.9-0.6-3.4-1.7-4.4-0.5-0.5-1.1-0.8-1.8-1-0.6-0.2-1.6-0.5-2.8-0.6l-3.7-0.6c-2.4-0.4-4.2-1.1-5.6-2.3-1.6-1.4-2.5-3.3-2.5-5.8 0-1.3 0.2-2.5 0.7-3.6s1.1-2 1.9-2.7 1.9-1.3 3.1-1.7 2.6-0.6 4-0.6c1.9 0 3.5 0.3 4.9 0.8s2.7 1.4 4.1 2.6l-1.6 1.6c-1.1-1-2.2-1.7-3.3-2.2s-2.5-0.7-4.3-0.7c-2.3 0-4 0.6-5.3 1.7-1.3 1.2-1.9 2.7-1.9 4.7 0 1.8 0.5 3.2 1.6 4.1 0.6 0.5 1.3 0.9 2.2 1.2 0.8 0.4 1.7 0.6 2.5 0.7l3.4 0.5c1.5 0.2 2.6 0.5 3.4 0.8s1.6 0.7 2.2 1.3c0.9 0.7 1.6 1.6 2 2.7 0.7 1.1 0.9 2.3 0.9 3.5z"/>
	<path class="st0" d="m526.5 838.6h-2.4v-14.8h-16.3v14.8h-2.4v-31.4h2.4v14.5h16.3v-14.5h2.4v31.4z"/>
	<linearGradient id="f" x1="185.83" x2="227.05" y1="324.44" y2="324.44" gradientUnits="userSpaceOnUse">
		<stop stop-color="#663C97" offset="0"/>
		<stop stop-color="#464DA0" offset="1"/>
		<stop stop-color="#71297E" offset="1"/>
	</linearGradient>
	<path class="st1" d="M222.9,281c-10.1,6.6-21.7,13.6-33.8,20.9v66c10.9-5.5,22.1-11.1,33.8-16.6V281z"/>
	<linearGradient id="e" x1="44.609" x2="128.43" y1="379.18" y2="379.18" gradientUnits="userSpaceOnUse">
		<stop stop-color="#663C97" offset="0"/>
		<stop stop-color="#464DA0" offset="1"/>
		<stop stop-color="#71297E" offset="1"/>
	</linearGradient>
	<path class="st2" d="m54.1 403c4.6 8.8 13.4 13.8 22.5 13.8 3.8 0 7.7-0.9 11.4-2.7 7.7-3.9 18.5-9.3 31.6-15.9 0.2-26.5 0.3-46.7 0.3-54.7v-2.1c-26.8 13.3-47.1 23.5-54.9 27.4-12.4 6.5-17.4 21.9-10.9 34.2z"/>
	<linearGradient id="d" x1="227.49" x2="289.38" y1="291.84" y2="291.84" gradientUnits="userSpaceOnUse">
		<stop stop-color="#663C97" offset="0"/>
		<stop stop-color="#464DA0" offset="1"/>
		<stop stop-color="#71297E" offset="1"/>
	</linearGradient>
	<path class="st3" d="m232.4 396.4c0 14 11.3 25.3 25.2 25.3h0.3c14.1-0.2 25.3-11.3 25.3-25.2v-209.2c0-2.2-0.3-4.4-0.8-6.5-2.9-11.2-13.1-18.7-24.4-18.7-1.1 0-2.2 0.1-3.4 0.2-12.8 1.7-22.1 12.2-22.1 25v104.5c-0.1 34.8-0.1 69.7-0.1 104.6z"/>
	<linearGradient id="c" x1="-52.418" x2="664.8" y1="290.73" y2="290.73" gradientUnits="userSpaceOnUse">
		<stop stop-color="#663C97" offset="0"/>
		<stop stop-color="#464DA0" offset="1"/>
		<stop stop-color="#71297E" offset="1"/>
	</linearGradient>
	<path class="st4" d="m592.2 234.4c-1.6-12.2-9.7-19-22-22.2-9.8-2.5-20-3-30.2-3.1-24.1-0.1-47.9 3.8-71.5 8.4-34.1 6.6-67.9 15.1-101.2 25.5-10 3.1-20 6.4-30 9.5 0-0.1-0.1-0.3-0.1-0.4l1.8-1.5c19.3-16.5 38.6-33 58-49.4 42.7-36 81.1-75.7 116.9-117.5 9.7-11.3 18.2-23.5 22.5-37.2 6.5-20.7-0.8-33.7-21.9-39.4-8.8-2.4-18-2.9-27.3-3-20-0.1-39.9 3.2-59.4 7.2-20.4 4.2-50 11.7-70 17.8-32 9.8-71.6 26.7-107 41-18 7-37.2 16.1-55.2 23l-67.9 27.7c-90.1 38.6-116.4 10.8-116.4 10.8s0 0.1 0.1 0.3c-0.2-0.3-0.3-0.5-0.4-0.8-17.5 34.6-2.9 97.4 98.5 52.5 15.9-6.2 32.1-12.9 48-19.1 30.6-11.9 60.8-26.6 91.4-38.5 6.7-2.8 32.5-13.4 63.8-24.8 6.5-2.5 12.9-5 19.4-7.5 19.9-6.5 39.7-13 59.9-18 22-5.8 41.2-9.1 52.9-7.6 1.2 0.1 2.4 0.2 3.5 0.4 5.3 0.7 8.1 3.5 7.6 7.2-0.2 5.8-9.4 24.6-93.3 94.4-6.1 5.3-12.2 10.5-18.3 15.8-9.4 8.1-18.5 16.1-27.7 24.1l-7.7 6.8-0.1 0.1-3.6 3.2c-0.3 0.3-0.5 0.5-0.9 0.8 0 0-0.4 0.4-0.9 0.8l-7 5.3c-0.2 0.2-1.2 1.1-1.5 1.3v88.7c29.7-10.1 174-58.3 189.5-44.2 1.2 1.6 19.5 13-148.3 127.9-6.6 5-13 10-19.6 15-8.1 6.2-16.2 12.4-24.3 18.5-30.3 22-60.5 44-90.8 66-4.4 3.2-8.8 6.3-13.1 9.5-0.2 24-0.3 46.9-0.4 67.9l320.2-236.2c19.5-16.6 38.1-34.1 55.4-52.8 9.8-10.6 18.6-21.6 24.4-34.4 2.9-6.5 5.1-13 4.2-19.8z"/>
	<linearGradient id="b" x1="59.329" x2="125.6" y1="601.43" y2="601.43" gradientUnits="userSpaceOnUse">
		<stop stop-color="#663C97" offset="0"/>
		<stop stop-color="#464DA0" offset="1"/>
		<stop stop-color="#71297E" offset="1"/>
	</linearGradient>
	<path class="st5" d="m70.5 597.8c-7.7 9.6-7.9 23.2-0.6 33.1 0.7 1 1.5 1.9 2.3 2.8 8.9 9.2 22.5 11 33.3 4.6l12.8-9.5c0.1-19.2 0.3-42.7 0.5-67.9l-43.3 32c-1.8 1.4-3.6 3.1-5 4.9z"/>
	<linearGradient id="a" x1="122.3" x2="187.2" y1="454.69" y2="454.69" gradientUnits="userSpaceOnUse">
		<stop stop-color="#663C97" offset="0"/>
		<stop stop-color="#464DA0" offset="1"/>
		<stop stop-color="#71297E" offset="1"/>
	</linearGradient>
	<path class="st6" d="m179.8 229.9c-2.9-11.2-13.1-18.7-24.4-18.7-1.1 0-2.2 0.1-3.4 0.2-12.8 1.7-22.1 12.2-22.1 25v104.5c0 21.2-0.9 126.1-1.7 213.1-0.2 24.9-0.4 48.3-0.5 67.9-0.2 24.8-0.3 43.4-0.3 51.1 0 14 11.3 25.3 25.2 25.3h0.3c14.1-0.2 25.3-11.3 25.3-25.2 0-17.5 0.2-49.5 0.4-88.6 0.1-21 0.3-44 0.4-67.9 0.7-108.9 1.7-237.3 1.6-280.1 0-2.3-0.2-4.5-0.8-6.6z"/>
</svg>
