<?xml version="1.0" encoding="UTF-8"?>
<svg enable-background="new 0 0 595.3 841.9" version="1.1" viewBox="0 0 595.3 841.9" xml:space="preserve" xmlns="http://www.w3.org/2000/svg">
<style type="text/css">
	.st0{fill:#FFFFFF;}
	.st1{fill:url(#f);}
	.st2{fill:url(#e);}
	.st3{fill:url(#d);}
	.st4{fill:url(#c);}
	.st5{fill:url(#b);}
	.st6{fill:url(#a);}
</style>
	<path class="st0" d="m90.9 829.2c0 2.7-0.8 4.8-2.5 6.3-1.6 1.5-3.9 2.2-6.7 2.2h-11.9v-31.3h11.5c1.8 0 3.3 0.3 4.7 1s2.4 1.6 3.2 2.9c0.8 1.2 1.2 2.7 1.2 4.4 0 1.6-0.4 3.1-1.3 4.4s-2.1 2.1-3.6 2.7c1.7 0.6 3 1.5 4 2.9 1 1.1 1.4 2.7 1.4 4.5zm-2.8-14.6c0-1.4-0.3-2.5-0.9-3.4s-1.4-1.6-2.5-2c-1-0.4-2.2-0.6-3.5-0.6h-8.9v12.1h8.9c2 0 3.7-0.5 5-1.5 1.2-1.1 1.9-2.6 1.9-4.6zm0.4 14.6c0-1.3-0.3-2.5-0.9-3.4-0.6-1-1.4-1.7-2.5-2.2s-2.3-0.8-3.8-0.8h-9.2v12.8h9.2c1.4 0 2.7-0.3 3.8-0.8s1.9-1.3 2.5-2.2 0.9-2.1 0.9-3.4z"/>
	<path class="st0" d="m117.2 837.7h-2.4v-31.3h2.4v31.3z"/>
	<path class="st0" d="m159.8 808.5h-9.4v29.2h-2.4v-29.2h-9.3v-2.1h21.1v2.1z"/>
	<path class="st0" d="m201.5 828.8c-0.3 1.9-1 3.5-2 4.9s-2.2 2.4-3.7 3.2c-1.5 0.7-3.1 1.1-5 1.1-1.5 0-2.9-0.3-4.3-0.8-1.4-0.6-2.5-1.3-3.6-2.4-0.9-0.9-1.6-1.9-2-2.9s-0.7-2.2-0.8-3.5-0.1-3.4-0.1-6.2 0.1-4.9 0.1-6.2c0.1-1.3 0.4-2.5 0.8-3.5s1.1-2 2-2.9c1-1 2.2-1.8 3.6-2.4s2.8-0.8 4.3-0.8c1.8 0 3.5 0.4 5 1.1s2.7 1.8 3.7 3.1c1 1.4 1.6 3 2 4.9h-2.4c-0.5-2.2-1.4-3.9-2.9-5.2s-3.2-1.9-5.3-1.9c-1.1 0-2.2 0.2-3.2 0.6s-1.9 1-2.7 1.8c-0.6 0.6-1 1.1-1.3 1.7s-0.5 1.4-0.7 2.3-0.3 2-0.3 3.1c0 1.2-0.1 2.6-0.1 4.3 0 2.5 0 4.4 0.1 5.7s0.3 2.4 0.7 3.3c0.3 0.9 0.9 1.7 1.6 2.4 0.8 0.8 1.7 1.4 2.7 1.8s2.1 0.6 3.2 0.6c1.4 0 2.7-0.3 3.8-0.8 1.1-0.6 2.1-1.4 2.9-2.5s1.3-2.3 1.6-3.7h2.3z"/>
	<path class="st0" d="m245.3 822.1c0 2.8 0 4.9-0.2 6.2-0.1 1.3-0.3 2.5-0.8 3.5-0.4 1-1.1 2-2 2.9-1 1-2.2 1.8-3.6 2.4s-2.8 0.8-4.3 0.8-2.9-0.3-4.3-0.8c-1.4-0.6-2.6-1.3-3.6-2.4-0.9-0.9-1.6-1.9-2-2.9s-0.7-2.2-0.8-3.5-0.2-3.4-0.2-6.2 0.1-4.9 0.2-6.2 0.3-2.5 0.8-3.5c0.4-1 1.1-2 2-2.9 1-1 2.2-1.8 3.6-2.4s2.8-0.8 4.3-0.8 2.9 0.3 4.3 0.8c1.3 0.6 2.5 1.3 3.5 2.4 0.9 0.9 1.6 1.9 2 2.9s0.7 2.2 0.8 3.5c0.3 1.3 0.3 3.4 0.3 6.2zm-2.4 0c0-2.5-0.1-4.4-0.2-5.7s-0.3-2.4-0.7-3.3c-0.3-0.9-0.9-1.7-1.6-2.4-0.8-0.8-1.7-1.4-2.7-1.8s-2.1-0.6-3.2-0.6-2.2 0.2-3.2 0.6-1.9 1-2.7 1.8c-0.6 0.6-1 1.1-1.3 1.7s-0.5 1.4-0.7 2.3-0.3 2-0.3 3.1c0 1.2-0.1 2.6-0.1 4.3 0 2.5 0.1 4.4 0.2 5.7s0.3 2.4 0.7 3.3c0.3 0.9 0.9 1.7 1.6 2.4 0.8 0.8 1.7 1.4 2.7 1.8s2.1 0.6 3.2 0.6 2.2-0.2 3.2-0.6 1.9-1 2.7-1.8c0.7-0.7 1.3-1.6 1.6-2.5s0.6-2 0.7-3.3 0.1-3.1 0.1-5.6z"/>
	<path class="st0" d="m271.5 837.7h-2.4v-31.3h2.4v31.3z"/>
	<path class="st0" d="m319.4 837.7h-2.4l-18-27.2v27.2h-2.4v-31.3h2.4l18.1 27.1v-27.1h2.4v31.3z"/>
	<path class="st0" d="M392.2,837.7h-2.4V823h-16.3v14.7h-2.4v-31.3h2.4v14.5h16.3v-14.5h2.4V837.7z"/>
	<path class="st0" d="m438.3 827.6c0 2-0.5 3.8-1.4 5.4s-2.2 2.8-3.8 3.7-3.5 1.3-5.6 1.3-3.9-0.4-5.6-1.3c-1.6-0.9-2.9-2.1-3.8-3.7s-1.4-3.4-1.4-5.4v-21.2h2.4v20.9c0 1.7 0.3 3.2 1 4.5s1.7 2.3 3 3 2.7 1.1 4.4 1.1c1.6 0 3.1-0.4 4.3-1.1 1.3-0.7 2.3-1.7 3-3s1-2.8 1-4.5v-20.9h2.4v21.2z"/>
	<path class="st0" d="m481.4 829.3c0 1.3-0.2 2.5-0.7 3.6s-1.2 2-2.1 2.8-2 1.3-3.4 1.7c-1.3 0.4-2.8 0.6-4.4 0.6-1.5 0-2.9-0.1-4.1-0.4s-2.4-0.7-3.4-1.4c-1-0.6-2-1.4-3-2.3l1.7-1.7c0.9 0.9 1.9 1.7 2.7 2.2 0.9 0.5 1.8 0.9 2.8 1.1s2.1 0.3 3.3 0.3c1.6 0 3.1-0.3 4.3-0.8s2.1-1.3 2.8-2.2c0.7-1 1-2.1 1-3.5 0-1.9-0.6-3.4-1.7-4.4-0.5-0.5-1.1-0.8-1.8-1-0.6-0.2-1.6-0.5-2.8-0.6l-3.6-0.6c-2.4-0.4-4.2-1.1-5.6-2.3-1.6-1.4-2.5-3.3-2.5-5.8 0-1.3 0.2-2.5 0.7-3.6s1.1-2 1.9-2.7 1.9-1.3 3.1-1.7 2.6-0.6 4-0.6c1.9 0 3.5 0.3 4.9 0.8s2.7 1.4 4.1 2.6l-1.6 1.5c-1.1-1-2.2-1.7-3.3-2.2s-2.5-0.7-4.3-0.7c-2.3 0-4 0.6-5.3 1.7-1.3 1.2-1.9 2.7-1.9 4.7 0 1.8 0.5 3.2 1.6 4.1 0.6 0.5 1.3 0.9 2.2 1.2 0.8 0.4 1.7 0.6 2.5 0.7l3.4 0.5c1.4 0.2 2.6 0.5 3.4 0.8s1.5 0.7 2.2 1.3c0.9 0.7 1.6 1.6 2 2.7 0.6 1.3 0.9 2.4 0.9 3.6z"/>
	<path class="st0" d="M525.3,837.7h-2.4V823h-16.3v14.7h-2.4v-31.3h2.4v14.5h16.3v-14.5h2.4V837.7z"/>
	<linearGradient id="f" x1="185.19" x2="226.34" y1="324.5" y2="324.5" gradientUnits="userSpaceOnUse">
		<stop stop-color="#663C97" offset="0"/>
		<stop stop-color="#464DA0" offset="1"/>
		<stop stop-color="#71297E" offset="1"/>
	</linearGradient>
	<path class="st1" d="m222.2 281.1c-10.1 6.6-21.7 13.6-33.7 20.9v65.9c10.9-5.5 22.1-11.1 33.7-16.6v-70.2z"/>
	<linearGradient id="e" x1="44.237" x2="127.9" y1="379.15" y2="379.15" gradientUnits="userSpaceOnUse">
		<stop stop-color="#663C97" offset="0"/>
		<stop stop-color="#464DA0" offset="1"/>
		<stop stop-color="#71297E" offset="1"/>
	</linearGradient>
	<path class="st2" d="m53.7 403c4.6 8.8 13.4 13.8 22.5 13.8 3.8 0 7.7-0.9 11.4-2.7 7.7-3.9 18.4-9.3 31.5-15.9 0.2-26.5 0.3-46.6 0.3-54.6v-2.1c-26.7 13.3-47 23.5-54.8 27.4-12.4 6.4-17.3 21.7-10.9 34.1z"/>
	<linearGradient id="d" x1="226.78" x2="288.55" y1="291.96" y2="291.96" gradientUnits="userSpaceOnUse">
		<stop stop-color="#663C97" offset="0"/>
		<stop stop-color="#464DA0" offset="1"/>
		<stop stop-color="#71297E" offset="1"/>
	</linearGradient>
	<path class="st3" d="m231.7 396.3c0 14 11.3 25.2 25.1 25.2h0.3c14.1-0.2 25.2-11.3 25.2-25.2v-208.8c0-2.2-0.3-4.4-0.8-6.5-2.9-11.1-13.1-18.7-24.4-18.7-1.1 0-2.2 0.1-3.3 0.2-12.7 1.7-22 12.2-22 24.9v104.3c-0.1 35-0.1 69.8-0.1 104.6z"/>
	<linearGradient id="c" x1="-52.609" x2="663.27" y1="290.86" y2="290.86" gradientUnits="userSpaceOnUse">
		<stop stop-color="#663C97" offset="0"/>
		<stop stop-color="#464DA0" offset="1"/>
		<stop stop-color="#71297E" offset="1"/>
	</linearGradient>
	<path class="st4" d="m590.8 234.6c-1.6-12.2-9.7-19-22-22.2-9.8-2.5-19.9-3-30.2-3.1-24-0.1-47.8 3.8-71.4 8.4-34.1 6.6-67.8 15.1-101 25.4-10 3.1-19.9 6.3-29.9 9.5 0-0.1-0.1-0.3-0.1-0.4l1.8-1.5c19.3-16.5 38.5-33 57.9-49.3 42.6-36 81-75.5 116.7-117.2 9.7-11.3 18.1-23.4 22.4-37.2 6.5-20.7-0.8-33.6-21.8-39.4-8.8-2.4-18-2.9-27.2-3-20-0.1-39.8 3.2-59.3 7.2-20.4 4.2-49.9 11.7-69.9 17.8-32 9.8-71.5 26.6-106.8 40.9-18 7-37.2 16-55.1 23l-67.8 27.6c-90 38.7-116.2 10.9-116.2 10.9s0 0.1 0.1 0.3c-0.2-0.3-0.3-0.5-0.4-0.8-17.5 34.5-2.9 97.2 98.3 52.4 15.9-6.2 32.1-12.9 47.9-19 30.5-11.9 60.7-26.6 91.3-38.4 6.7-2.8 32.5-13.3 63.7-24.7 6.4-2.5 12.9-5 19.3-7.5 19.8-6.5 39.6-13 59.8-18 22-5.7 41.2-9.1 52.8-7.6 1.2 0.1 2.4 0.2 3.5 0.4 5.3 0.7 8.1 3.5 7.6 7.2-0.2 5.7-9.4 24.6-93.1 94.3-6.1 5.2-12.2 10.5-18.3 15.7-9.4 8.1-18.5 16.1-27.7 24.1l-7.7 6.8-0.1 0.1-3.6 3.2c-0.3 0.3-0.5 0.5-0.9 0.8 0 0-0.4 0.4-0.9 0.8l-7 5.3c-0.2 0.2-1.2 1.1-1.5 1.3v88.5c29.6-10.1 173.7-58.2 189.2-44.1 1.2 1.6 19.5 13-148 127.6-6.6 5-13 10-19.6 15-8.1 6.2-16.1 12.3-24.2 18.5-30.3 21.9-60.4 43.9-90.7 65.8-4.4 3.2-8.7 6.3-13.1 9.5-0.2 23.9-0.3 46.8-0.4 67.8l319.6-235.8c19.5-16.5 38-34 55.3-52.7 9.8-10.5 18.6-21.6 24.4-34.3 3-6.6 5.2-13 4.3-19.9z"/>
	<linearGradient id="b" x1="58.93" x2="125.08" y1="600.98" y2="600.98" gradientUnits="userSpaceOnUse">
		<stop stop-color="#663C97" offset="0"/>
		<stop stop-color="#464DA0" offset="1"/>
		<stop stop-color="#71297E" offset="1"/>
	</linearGradient>
	<path class="st5" d="m70.1 597.3c-7.7 9.5-7.9 23.1-0.6 33 0.7 1 1.5 1.9 2.3 2.7 8.9 9.2 22.5 11 33.2 4.6l12.8-9.4c0.1-19.2 0.3-42.6 0.5-67.8l-43.2 32c-1.8 1.4-3.6 3.1-5 4.9z"/>
	<linearGradient id="a" x1="121.78" x2="186.56" y1="454.51" y2="454.51" gradientUnits="userSpaceOnUse">
		<stop stop-color="#663C97" offset="0"/>
		<stop stop-color="#464DA0" offset="1"/>
		<stop stop-color="#71297E" offset="1"/>
	</linearGradient>
	<path class="st6" d="m179.2 230.1c-2.9-11.1-13.1-18.7-24.4-18.7-1.1 0-2.2 0.1-3.3 0.2-12.7 1.7-22 12.2-22 24.9v104.3c0 21.1-0.9 125.8-1.7 212.7-0.2 24.9-0.4 48.3-0.5 67.8-0.2 24.8-0.3 43.4-0.3 51 0 14 11.3 25.2 25.1 25.2h0.3c14.1-0.2 25.2-11.3 25.2-25.2 0-17.5 0.2-49.4 0.4-88.5 0.1-20.9 0.3-43.9 0.4-67.8 0.7-108.7 1.7-236.8 1.6-279.5 0-2.1-0.3-4.3-0.8-6.4z"/>
</svg>
