<?xml version="1.0" encoding="UTF-8"?>
<svg enable-background="new 0 0 595.3 702.3" version="1.1" viewBox="0 0 595.3 702.3" xml:space="preserve" xmlns="http://www.w3.org/2000/svg">
<style type="text/css">
	.st0{fill:#010101;}
</style>
	<path class="st0" d="m223 281.3c-9.4 6.6-21.9 13.5-33.6 20.8v65.5c10.9-5.5 21.9-11 33.6-16.5v-69.8z"/>
	<path class="st0" d="m55.6 402.5c4.6 8.7 13.3 13.7 22.4 13.7 3.8 0 7.7-0.9 11.3-2.7 7.6-3.9 18.2-9.3 31.2-15.8 0.2-26.3 0.2-46.4 0.2-54.3v-2.1c-26.5 13.2-46.6 23.3-54.3 27.2-12.5 6.5-17.3 21.7-10.8 34z"/>
	<path class="st0" d="m232.6 395.9c0 13.9 11.2 25.1 25 25.1h0.3c14-0.2 25.1-11.2 25.1-25.1v-207.7c0-2.2-0.3-4.4-0.8-6.5-2.9-11.1-13-18.6-24.3-18.6-1.1 0-2.2 0.1-3.3 0.2-12.7 1.7-21.9 12.1-21.9 24.8v103.7c-0.1 34.8-0.1 69.5-0.1 104.1z"/>
	<path class="st0" d="m589.8 235.1c-1.6-12.1-9.6-18.9-21.8-22.1-9.7-2.5-19.8-3-30-3.1-23.9-0.1-47.6 3.8-71 8.3-33.9 6.5-67.4 15-100.5 25.3-9.9 3.1-19.8 6.3-29.8 9.5 0-0.1-0.1-0.3-0.1-0.4 0.6-0.5 1.2-1 1.7-1.5 19.2-16.4 38.3-32.8 57.6-49.1 42.4-35.8 80.5-75.1 116.1-116.6 9.6-11.3 18-23.3 22.3-37 6.5-20.6-0.8-33.5-21.7-39.2-8.8-2.4-17.9-2.9-27.1-3-19.9-0.1-39.6 3.2-59 7.2-20.3 4.2-49.7 11.6-69.5 17.7-31.7 9.9-71 26.6-106.1 40.8-17.9 6.9-37 15.9-54.8 22.9l-67.5 27.5c-89.5 38.3-115.6 10.7-115.6 10.7s0 0.1 0.1 0.3c-0.2-0.3-0.3-0.5-0.4-0.8-17.4 34.3-2.9 96.7 97.8 52.1 15.8-6.1 31.9-12.8 47.7-18.9 30.4-11.8 60.4-26.4 90.8-38.2 6.6-2.7 32.3-13.3 63.4-24.6l19.2-7.5c19.7-6.4 39.4-12.9 59.5-17.9 21.9-5.7 40.9-9 52.5-7.5 1.2 0.1 2.3 0.2 3.5 0.4 5.3 0.7 8.1 3.5 7.6 7.1-0.2 5.7-9.3 24.5-92.6 93.8-6.1 5.2-12.1 10.4-18.2 15.7-9.3 8.1-18.4 16-27.5 23.9l-7.7 6.8-0.1 0.1-3.6 3.2c-0.3 0.3-0.5 0.5-0.9 0.8 0 0-0.4 0.4-0.9 0.8l-7 5.3c-0.2 0.2-1.2 1.1-1.5 1.2v88.1c29.4-10.1 172.7-57.9 188.2-43.9 1.2 1.6 19.4 12.9-147.2 127-6.6 4.9-12.9 9.9-19.5 14.9-8.1 6.1-16 12.3-24.1 18.4-30.1 21.5-60.1 43.4-90.2 65.2-4.3 3.1-8.7 6.3-13 9.4-0.2 23.8-0.3 46.6-0.4 67.5l317.9-234.5c19.4-16.5 37.8-33.8 55-52.4 9.7-10.5 18.5-21.5 24.2-34.2 2.9-6.3 5.1-12.7 4.2-19.5z"/>
	<path class="st0" d="m71.8 595.8c-7.6 9.5-7.8 23-0.6 32.8 0.7 1 1.5 1.9 2.3 2.7 8.9 9.2 22.4 10.9 33 4.6l12.7-9.4c0.1-19.1 0.3-42.4 0.5-67.4l-43 31.8c-1.7 1.5-3.4 3.2-4.9 4.9z"/>
	<path class="st0" d="m180.4 230.6c-2.9-11.1-13-18.6-24.3-18.6-1.1 0-2.2 0.1-3.3 0.2-12.7 1.7-21.9 12.1-21.9 24.8v103.7c0 21-0.9 125.2-1.6 211.6-0.2 24.7-0.4 48-0.5 67.5-0.2 24.6-0.3 43.1-0.3 50.7 0 13.9 11.2 25.1 25 25.1h0.3c14-0.2 25.1-11.2 25.1-25.1 0-17.4 0.2-49.2 0.4-88 0.1-20.8 0.3-43.7 0.4-67.4 0.7-108.2 1.7-235.6 1.6-278-0.1-2.2-0.4-4.4-0.9-6.5z"/>
</svg>
