<?xml version="1.0" encoding="UTF-8"?>
<svg enable-background="new 0 0 595.3 841.9" version="1.1" viewBox="0 0 595.3 841.9" xml:space="preserve" xmlns="http://www.w3.org/2000/svg">
<style type="text/css">
	.st0{fill:#010101;}
</style>
	<path class="st0" d="m92.6 826.5c0 2.7-0.8 4.8-2.5 6.3-1.6 1.5-3.9 2.2-6.7 2.2h-11.8v-31.2h11.5c1.8 0 3.3 0.3 4.7 1 1.4 0.6 2.4 1.6 3.2 2.8s1.2 2.7 1.2 4.3-0.4 3.1-1.3 4.3c-0.9 1.3-2.1 2.1-3.6 2.7 1.7 0.6 3 1.5 4 2.9 0.8 1.3 1.3 2.9 1.3 4.7zm-2.9-14.5c0-1.4-0.3-2.5-0.9-3.4s-1.4-1.6-2.5-2c-1-0.4-2.2-0.6-3.5-0.6h-8.8v12h8.8c2 0 3.7-0.5 5-1.5s1.9-2.5 1.9-4.5zm0.5 14.5c0-1.3-0.3-2.5-0.9-3.4-0.6-1-1.4-1.7-2.4-2.2-1.1-0.5-2.3-0.8-3.7-0.8h-9.2v12.8h9.2c1.4 0 2.7-0.3 3.7-0.8 1.1-0.5 1.9-1.2 2.4-2.2 0.6-0.9 0.9-2.1 0.9-3.4z"/>
	<path class="st0" d="M118.6,835h-2.4v-31.2h2.4V835z"/>
	<path class="st0" d="m161 805.9h-9.3v29.1h-2.4v-29.1h-9.3v-2.1h21v2.1z"/>
	<path class="st0" d="m202.5 826.1c-0.3 1.9-1 3.5-2 4.9s-2.2 2.4-3.7 3.1-3.1 1.1-4.9 1.1c-1.5 0-2.9-0.3-4.3-0.8-1.4-0.6-2.5-1.3-3.5-2.4-0.9-0.9-1.6-1.9-2-2.9s-0.6-2.2-0.8-3.5c-0.1-1.3-0.1-3.4-0.1-6.2s0.1-4.9 0.1-6.2c0.1-1.3 0.4-2.5 0.8-3.5s1.1-2 2-2.9c1-1 2.2-1.8 3.5-2.4s2.8-0.8 4.3-0.8c1.8 0 3.5 0.4 5 1.1s2.7 1.8 3.7 3.1c1 1.4 1.6 3 2 4.9h-2.4c-0.5-2.2-1.4-3.9-2.9-5.1-1.5-1.3-3.2-1.9-5.3-1.9-1.1 0-2.2 0.2-3.2 0.6s-1.9 1-2.7 1.8c-0.6 0.6-1 1.1-1.3 1.7s-0.5 1.4-0.7 2.3-0.3 2-0.3 3.1c0 1.2-0.1 2.6-0.1 4.2 0 2.5 0 4.3 0.1 5.6s0.3 2.4 0.7 3.3c0.3 0.9 0.9 1.7 1.6 2.4 0.8 0.8 1.7 1.4 2.7 1.8s2.1 0.6 3.2 0.6c1.4 0 2.6-0.3 3.8-0.8 1.1-0.6 2.1-1.4 2.9-2.5s1.3-2.3 1.6-3.7h2.2z"/>
	<path class="st0" d="m246.1 819.4c0 2.8 0 4.9-0.1 6.2s-0.3 2.5-0.7 3.5-1.1 2-2 2.9c-1 1-2.2 1.8-3.5 2.4s-2.8 0.8-4.2 0.8c-1.5 0-2.9-0.3-4.3-0.8-1.4-0.6-2.5-1.3-3.5-2.4-0.9-0.9-1.6-1.9-2-2.9s-0.6-2.2-0.7-3.5-0.2-3.4-0.2-6.2 0.1-4.9 0.2-6.2 0.3-2.5 0.7-3.5 1.1-2 2-2.9c1-1 2.2-1.8 3.5-2.4s2.8-0.8 4.3-0.8 2.9 0.3 4.2 0.8c1.3 0.6 2.5 1.3 3.5 2.4 0.9 0.9 1.6 1.9 2 2.9s0.6 2.2 0.7 3.5 0.1 3.4 0.1 6.2zm-2.3 0c0-2.5-0.1-4.3-0.1-5.6-0.1-1.3-0.3-2.4-0.7-3.3-0.3-0.9-0.9-1.7-1.6-2.4-0.8-0.8-1.7-1.4-2.7-1.8s-2.1-0.6-3.2-0.6-2.2 0.2-3.2 0.6-1.9 1-2.7 1.8c-0.6 0.6-1 1.1-1.3 1.7s-0.5 1.4-0.7 2.3-0.3 2-0.3 3.1c0 1.2-0.1 2.6-0.1 4.2 0 2.5 0.1 4.3 0.1 5.6 0.1 1.3 0.3 2.4 0.7 3.3 0.3 0.9 0.9 1.7 1.6 2.4 0.8 0.8 1.7 1.4 2.7 1.8s2.1 0.6 3.2 0.6 2.2-0.2 3.2-0.6 1.9-1 2.7-1.8c0.7-0.7 1.3-1.6 1.6-2.4 0.3-0.9 0.6-2 0.7-3.3 0-1.2 0.1-3.1 0.1-5.6z"/>
	<path class="st0" d="M272.2,835h-2.4v-31.2h2.4V835z"/>
	<path class="st0" d="M319.9,835h-2.4l-18-27.1V835h-2.4v-31.2h2.4l18,27v-27h2.4V835z"/>
	<path class="st0" d="M392.2,835h-2.4v-14.7h-16.2V835h-2.4v-31.2h2.4v14.4h16.2v-14.4h2.4V835z"/>
	<path class="st0" d="m438.1 824.9c0 2-0.5 3.8-1.4 5.4s-2.2 2.8-3.8 3.7-3.5 1.3-5.5 1.3c-2.1 0-3.9-0.4-5.5-1.3s-2.9-2.1-3.8-3.7-1.4-3.4-1.4-5.4v-21h2.4v20.8c0 1.7 0.3 3.2 1 4.5s1.7 2.3 2.9 3c1.3 0.7 2.7 1.1 4.4 1.1 1.6 0 3-0.4 4.3-1.1s2.3-1.7 2.9-3c0.7-1.3 1-2.8 1-4.5v-20.8h2.4v21z"/>
	<path class="st0" d="m480.9 826.6c0 1.3-0.2 2.5-0.7 3.5-0.5 1.1-1.2 2-2.1 2.7s-2 1.3-3.3 1.7-2.8 0.6-4.4 0.6c-1.5 0-2.8-0.1-4.1-0.4-1.2-0.3-2.4-0.7-3.4-1.3s-2-1.4-2.9-2.3l1.7-1.7c0.9 0.9 1.8 1.7 2.7 2.2s1.8 0.9 2.8 1.1 2.1 0.3 3.3 0.3c1.6 0 3-0.3 4.2-0.8s2.1-1.2 2.8-2.2 1-2.1 1-3.4c0-1.9-0.6-3.4-1.7-4.4-0.5-0.5-1.1-0.8-1.8-1-0.6-0.2-1.6-0.4-2.7-0.6l-3.6-0.6c-2.4-0.4-4.2-1.1-5.6-2.3-1.6-1.4-2.5-3.3-2.5-5.7 0-1.3 0.2-2.5 0.7-3.6s1.1-2 1.9-2.7 1.8-1.3 3.1-1.7c1.2-0.4 2.5-0.6 4-0.6 1.9 0 3.5 0.3 4.9 0.8s2.7 1.4 4.1 2.6l-1.5 1.5c-1.1-1-2.2-1.7-3.3-2.2s-2.5-0.7-4.2-0.7c-2.2 0-4 0.6-5.3 1.7-1.3 1.2-1.9 2.7-1.9 4.7 0 1.8 0.5 3.2 1.6 4.1 0.6 0.5 1.3 0.9 2.1 1.2 0.8 0.4 1.7 0.6 2.5 0.7l3.4 0.5c1.4 0.2 2.6 0.5 3.4 0.8s1.5 0.7 2.2 1.3c0.9 0.7 1.6 1.6 2 2.6 0.4 1.3 0.6 2.4 0.6 3.6z"/>
	<path class="st0" d="M524.6,835h-2.4v-14.7H506V835h-2.4v-31.2h2.4v14.4h16.2v-14.4h2.4V835z"/>
	<path class="st0" d="m223 281.3c-9.4 6.6-21.9 13.5-33.6 20.8v65.5c10.9-5.5 21.9-11 33.6-16.5v-69.8z"/>
	<path class="st0" d="m55.6 402.5c4.6 8.7 13.3 13.7 22.4 13.7 3.8 0 7.7-0.9 11.3-2.7 7.6-3.9 18.2-9.3 31.2-15.8 0.2-26.3 0.2-46.4 0.2-54.3v-2.1c-26.5 13.2-46.6 23.3-54.3 27.2-12.5 6.5-17.3 21.7-10.8 34z"/>
	<path class="st0" d="m232.6 395.9c0 13.9 11.2 25.1 25 25.1h0.3c14-0.2 25.1-11.2 25.1-25.1v-207.7c0-2.2-0.3-4.4-0.8-6.5-2.9-11.1-13-18.6-24.3-18.6-1.1 0-2.2 0.1-3.3 0.2-12.7 1.7-21.9 12.1-21.9 24.8v103.7c-0.1 34.8-0.1 69.5-0.1 104.1z"/>
	<path class="st0" d="m589.8 235.1c-1.6-12.1-9.6-18.9-21.8-22.1-9.7-2.5-19.8-3-30-3.1-23.9-0.1-47.6 3.8-71 8.3-33.9 6.5-67.4 15-100.5 25.3-9.9 3.1-19.8 6.3-29.8 9.5 0-0.1-0.1-0.3-0.1-0.4 0.6-0.5 1.2-1 1.7-1.5 19.2-16.4 38.3-32.8 57.6-49.1 42.4-35.8 80.5-75.1 116.1-116.6 9.6-11.3 18-23.3 22.3-37 6.5-20.6-0.8-33.5-21.7-39.2-8.8-2.4-17.9-2.9-27.1-3-19.9-0.1-39.6 3.2-59 7.2-20.3 4.2-49.7 11.6-69.5 17.7-31.7 9.9-71 26.6-106.1 40.8-17.9 6.9-37 15.9-54.8 22.9l-67.5 27.5c-89.5 38.3-115.6 10.7-115.6 10.7s0 0.1 0.1 0.3c-0.2-0.3-0.3-0.5-0.4-0.8-17.4 34.3-2.9 96.7 97.8 52.1 15.8-6.1 31.9-12.8 47.7-18.9 30.4-11.8 60.4-26.4 90.8-38.2 6.6-2.7 32.3-13.3 63.4-24.6l19.2-7.5c19.7-6.4 39.4-12.9 59.5-17.9 21.9-5.7 40.9-9 52.5-7.5 1.2 0.1 2.3 0.2 3.5 0.4 5.3 0.7 8.1 3.5 7.6 7.1-0.2 5.7-9.3 24.5-92.6 93.8-6.1 5.2-12.1 10.4-18.2 15.7-9.3 8.1-18.4 16-27.5 23.9l-7.7 6.8-0.1 0.1-3.6 3.2c-0.3 0.3-0.5 0.5-0.9 0.8 0 0-0.4 0.4-0.9 0.8l-7 5.3c-0.2 0.2-1.2 1.1-1.5 1.2v88.1c29.4-10.1 172.7-57.9 188.2-43.9 1.2 1.6 19.4 12.9-147.2 127-6.6 4.9-12.9 9.9-19.5 14.9-8.1 6.1-16 12.3-24.1 18.4-30.1 21.5-60.1 43.4-90.2 65.2-4.3 3.1-8.7 6.3-13 9.4-0.2 23.8-0.3 46.6-0.4 67.5l317.9-234.5c19.4-16.5 37.8-33.8 55-52.4 9.7-10.5 18.5-21.5 24.2-34.2 2.9-6.3 5.1-12.7 4.2-19.5z"/>
	<path class="st0" d="m71.8 595.8c-7.6 9.5-7.8 23-0.6 32.8 0.7 1 1.5 1.9 2.3 2.7 8.9 9.2 22.4 10.9 33 4.6l12.7-9.4c0.1-19.1 0.3-42.4 0.5-67.4l-43 31.8c-1.7 1.5-3.4 3.2-4.9 4.9z"/>
	<path class="st0" d="m180.4 230.6c-2.9-11.1-13-18.6-24.3-18.6-1.1 0-2.2 0.1-3.3 0.2-12.7 1.7-21.9 12.1-21.9 24.8v103.7c0 21-0.9 125.2-1.6 211.6-0.2 24.7-0.4 48-0.5 67.5-0.2 24.6-0.3 43.1-0.3 50.7 0 13.9 11.2 25.1 25 25.1h0.3c14-0.2 25.1-11.2 25.1-25.1 0-17.4 0.2-49.2 0.4-88 0.1-20.8 0.3-43.7 0.4-67.4 0.7-108.2 1.7-235.6 1.6-278-0.1-2.2-0.4-4.4-0.9-6.5z"/>
</svg>
