<?xml version="1.0" encoding="UTF-8"?>
<svg enable-background="new 0 0 595.3 71.7" version="1.1" viewBox="0 0 595.3 71.7" xml:space="preserve" xmlns="http://www.w3.org/2000/svg">
<style type="text/css">
	.st0{fill:#4E4E4E;}
	.st1{fill:url(#f);}
	.st2{fill:url(#e);}
	.st3{fill:url(#d);}
	.st4{fill:url(#c);}
	.st5{fill:url(#b);}
	.st6{fill:url(#a);}
</style>
		<path class="st0" d="m117.9 41.4c0 2.9-0.9 5.2-2.7 6.8s-4.2 2.4-7.2 2.4h-12.8v-33.7h12.4c1.9 0 3.6 0.4 5.1 1.1s2.6 1.7 3.5 3.1c0.8 1.3 1.3 2.9 1.3 4.7s-0.5 3.3-1.4 4.7-2.2 2.3-3.9 2.9c1.9 0.6 3.3 1.7 4.3 3.1 0.9 1.3 1.4 3 1.4 4.9zm-3.1-15.7c0-1.5-0.3-2.7-1-3.7s-1.5-1.7-2.7-2.2c-1.1-0.5-2.4-0.7-3.8-0.7h-9.6v13.1h9.6c2.2 0 4-0.5 5.4-1.6s2.1-2.7 2.1-4.9zm0.5 15.8c0-1.4-0.3-2.7-0.9-3.7s-1.5-1.8-2.6-2.4-2.5-0.8-4-0.8h-9.9v13.8h9.9c1.6 0 2.9-0.3 4-0.8 1.1-0.6 2-1.4 2.6-2.4 0.6-1.1 0.9-2.3 0.9-3.7z"/>
		<path class="st0" d="M146.2,50.6h-2.6V16.9h2.6V50.6z"/>
		<path class="st0" d="M192.1,19.1H182v31.5h-2.6V19.1h-10v-2.3h22.7V19.1z"/>
		<path class="st0" d="m237 41.1c-0.4 2-1.1 3.8-2.1 5.3s-2.4 2.6-4 3.4-3.4 1.2-5.3 1.2c-1.6 0-3.1-0.3-4.6-0.9s-2.7-1.4-3.8-2.5c-1-1-1.7-2.1-2.2-3.2-0.4-1.1-0.7-2.4-0.8-3.8s-0.2-3.7-0.2-6.7 0.1-5.3 0.2-6.7 0.4-2.7 0.8-3.8 1.1-2.2 2.2-3.2c1.1-1.1 2.4-1.9 3.8-2.5 1.5-0.6 3-0.9 4.6-0.9 2 0 3.8 0.4 5.4 1.2s2.9 1.9 4 3.4c1 1.5 1.7 3.2 2.1 5.3h-2.6c-0.5-2.3-1.5-4.2-3.1-5.6s-3.5-2-5.8-2c-1.2 0-2.4 0.2-3.5 0.7-1.1 0.4-2.1 1.1-3 1.9-0.6 0.6-1.1 1.2-1.4 1.9-0.3 0.6-0.6 1.5-0.8 2.5s-0.3 2.1-0.3 3.4-0.1 2.8-0.1 4.6c0 2.7 0.1 4.7 0.2 6.1s0.3 2.6 0.7 3.6 0.9 1.8 1.7 2.6c0.9 0.8 1.8 1.5 2.9 1.9s2.3 0.7 3.5 0.7c1.5 0 2.9-0.3 4.1-0.9s2.3-1.5 3.1-2.7c0.9-1.2 1.4-2.5 1.7-4h2.6z"/>
		<path class="st0" d="m284.3 33.8c0 3-0.1 5.3-0.2 6.7s-0.4 2.7-0.8 3.8-1.2 2.2-2.2 3.2c-1.1 1.1-2.4 1.9-3.8 2.5-1.5 0.6-3 0.9-4.6 0.9s-3.1-0.3-4.6-0.9-2.7-1.4-3.8-2.5c-1-1-1.7-2.1-2.2-3.2-0.4-1.1-0.7-2.4-0.8-3.8s-0.2-3.7-0.2-6.7 0.1-5.3 0.2-6.7 0.4-2.7 0.8-3.8 1.2-2.2 2.2-3.2c1.1-1.1 2.4-1.9 3.8-2.5 1.5-0.6 3-0.9 4.6-0.9s3.2 0.3 4.6 0.9c1.5 0.6 2.7 1.5 3.8 2.5 1 1 1.7 2.1 2.2 3.2 0.4 1.1 0.7 2.4 0.8 3.8s0.2 3.6 0.2 6.7zm-2.6 0c0-2.7-0.1-4.7-0.2-6.1s-0.3-2.6-0.7-3.6-0.9-1.8-1.7-2.6c-0.9-0.9-1.8-1.5-2.9-1.9s-2.2-0.7-3.5-0.7c-1.2 0-2.4 0.2-3.5 0.7-1.1 0.4-2.1 1.1-2.9 1.9-0.6 0.6-1.1 1.2-1.4 1.9-0.3 0.6-0.6 1.5-0.8 2.5s-0.3 2.1-0.3 3.4-0.1 2.8-0.1 4.6c0 2.7 0.1 4.7 0.2 6.1s0.3 2.6 0.7 3.6 0.9 1.8 1.7 2.6 1.8 1.5 2.9 1.9 2.3 0.7 3.5 0.7 2.4-0.2 3.5-0.7c1.1-0.4 2.1-1.1 2.9-1.9s1.4-1.7 1.7-2.6c0.4-1 0.6-2.1 0.7-3.5 0.2-1.6 0.2-3.7 0.2-6.3z"/>
		<path class="st0" d="M312.5,50.6H310V16.9h2.6V50.6z"/>
		<path class="st0" d="M364.2,50.6h-2.6l-19.5-29.4v29.4h-2.6V16.9h2.6l19.5,29.2V16.9h2.6V50.6z"/>
		<path class="st0" d="M442.6,50.6H440V34.7h-17.6v15.9h-2.6V16.9h2.6v15.6H440V16.9h2.6V50.6z"/>
		<path class="st0" d="m492.3 39.7c0 2.2-0.5 4.1-1.5 5.8s-2.3 3-4.1 4c-1.8 0.9-3.8 1.4-6 1.4s-4.2-0.5-6-1.4-3.1-2.3-4.1-4-1.5-3.6-1.5-5.8v-22.8h2.6v22.5c0 1.9 0.4 3.5 1.1 4.9s1.8 2.5 3.2 3.3 2.9 1.2 4.7 1.2c1.7 0 3.3-0.4 4.7-1.2s2.4-1.9 3.2-3.3c0.7-1.4 1.1-3 1.1-4.9v-22.5h2.6v22.8z"/>
		<path class="st0" d="m538.7 41.6c0 1.4-0.3 2.7-0.8 3.8-0.5 1.2-1.3 2.2-2.2 3-1 0.8-2.2 1.4-3.6 1.9-1.4 0.4-3 0.7-4.7 0.7-1.6 0-3.1-0.2-4.4-0.5s-2.5-0.8-3.7-1.5c-1.1-0.7-2.2-1.5-3.2-2.5l1.8-1.8c1 1 2 1.8 2.9 2.4s1.9 1 3 1.2 2.3 0.4 3.6 0.4c1.8 0 3.3-0.3 4.6-0.8 1.3-0.6 2.3-1.4 3-2.4 0.7-1.1 1.1-2.3 1.1-3.7 0-2.1-0.6-3.7-1.8-4.7-0.6-0.5-1.2-0.9-1.9-1.1-0.7-0.3-1.7-0.5-3-0.7l-3.9-0.6c-2.6-0.4-4.6-1.2-6-2.5-1.8-1.5-2.7-3.5-2.7-6.2 0-1.4 0.2-2.7 0.7-3.9s1.2-2.1 2.1-2.9 2-1.4 3.3-1.8 2.8-0.6 4.3-0.6c2.1 0 3.8 0.3 5.3 0.9s3 1.5 4.4 2.8l-1.7 1.7c-1.2-1.1-2.4-1.9-3.6-2.4s-2.7-0.8-4.6-0.8c-2.4 0-4.3 0.6-5.7 1.9s-2.1 2.9-2.1 5.1c0 2 0.6 3.4 1.7 4.4 0.6 0.5 1.4 1 2.3 1.3 0.9 0.4 1.8 0.6 2.7 0.8l3.6 0.6c1.6 0.2 2.8 0.5 3.7 0.8s1.7 0.8 2.4 1.4c1 0.8 1.7 1.7 2.2 2.9 0.6 0.8 0.9 2 0.9 3.4z"/>
		<path class="st0" d="M586,50.6h-2.6V34.7h-17.6v15.9h-2.6V16.9h2.6v15.6h17.6V16.9h2.6V50.6z"/>
		<linearGradient id="f" x1="23.332" x2="27.099" y1="34.226" y2="34.226" gradientUnits="userSpaceOnUse">
			<stop stop-color="#663C97" offset="0"/>
			<stop stop-color="#464DA0" offset="1"/>
			<stop stop-color="#71297E" offset="1"/>
		</linearGradient>
		<path class="st1" d="m26.7 30.3c-0.7 0.6-1.9 1.2-3.1 1.9v5.9c1.2-0.5 2.1-1 3.1-1.5v-6.3z"/>
		<linearGradient id="e" x1="10.798" x2="18.468" y1="39.124" y2="39.124" gradientUnits="userSpaceOnUse">
			<stop stop-color="#663C97" offset="0"/>
			<stop stop-color="#464DA0" offset="1"/>
			<stop stop-color="#71297E" offset="1"/>
		</linearGradient>
		<path class="st2" d="m11.6 41.3c0.4 0.8 1.2 1.2 2 1.2 0.3 0 0.7-0.1 1-0.2 0.7-0.3 1.7-0.8 2.9-1.4 0-2.4 0.1-4.2 0.1-4.9v-0.2c-2.6 1.2-4.3 2.1-5 2.5-1 0.5-1.5 1.9-1 3z"/>
		<linearGradient id="d" x1="27.157" x2="32.694" y1="31.345" y2="31.345" gradientUnits="userSpaceOnUse">
			<stop stop-color="#663C97" offset="0"/>
			<stop stop-color="#464DA0" offset="1"/>
			<stop stop-color="#71297E" offset="1"/>
		</linearGradient>
		<path class="st3" d="m27.6 40.7c0 1.3 1 2.3 2.3 2.3s2.3-1 2.3-2.3v-18.7c0-0.2 0-0.4-0.1-0.6-0.3-1-1.2-1.7-2.2-1.7h-0.3c-1.1 0.2-2 1.1-2 2.2v9.4 9.4z"/>
		<linearGradient id="c" x1="2.1146" x2="66.281" y1="31.211" y2="31.211" gradientUnits="userSpaceOnUse">
			<stop stop-color="#663C97" offset="0"/>
			<stop stop-color="#464DA0" offset="1"/>
			<stop stop-color="#71297E" offset="1"/>
		</linearGradient>
		<path class="st4" d="m59.8 26.2c-0.1-1.1-0.9-1.7-2-2-0.9-0.2-1.8-0.3-2.7-0.3-2.2 0-4.3 0.3-6.4 0.8-3.1 0.6-6.1 1.4-9.1 2.3-0.9 0.3-1.8 0.6-2.7 0.9 0.1 0 0.1-0.1 0.2-0.1 1.7-1.5 3.5-3 5.2-4.4 3.8-3.2 7.3-6.8 10.5-10.5 0.9-1 1.6-2.1 2-3.3 0.6-1.9-0.1-3-2-3.5-0.8-0.2-1.6-0.3-2.4-0.3-1.8 0-3.6 0.3-5.3 0.6-1.8 0.4-4.5 1-6.3 1.6-2.9 0.9-6.4 2.4-9.6 3.7-1.6 0.6-3.3 1.4-4.9 2.1l-6.1 2.2c-8.1 3.5-10.4 1-10.4 1s0 0 0 0v-0.1c-1.6 3.1-0.3 8.7 8.8 4.7 1.4-0.6 2.9-1.2 4.3-1.7 2.7-1.1 5.4-2.4 8.2-3.4 0.6-0.2 2.9-1.2 5.7-2.2 0.6-0.2 1.2-0.4 1.7-0.7 1.8-0.6 3.6-1.2 5.4-1.6 2-0.5 3.7-0.8 4.7-0.7h0.3c0.5 0.1 0.7 0.3 0.7 0.6 0 0.5-0.8 2.2-8.3 8.4-0.5 0.5-1.1 0.9-1.6 1.4-0.8 0.7-1.7 1.4-2.5 2.2l-0.7 0.6-0.3 0.3-0.1 0.1-0.1 0.1-0.6 0.5-0.1 0.1v7.9c2.7-0.9 15.6-5.2 17-4 0.1 0.1 1.7 1.2-13.3 11.4-0.6 0.4-1.2 0.9-1.8 1.3-0.7 0.6-1.4 1.1-2.2 1.7-2.7 2-5.4 3.9-8.1 5.9-0.4 0.3-0.8 0.6-1.2 0.8v6.1l28.6-21.1c1.7-1.5 3.4-3 5-4.7 0.9-0.9 1.7-1.9 2.2-3.1 0.2-0.4 0.4-1 0.3-1.6z"/>
		<linearGradient id="b" x1="12.112" x2="18.041" y1="59.007" y2="59.007" gradientUnits="userSpaceOnUse">
			<stop stop-color="#663C97" offset="0"/>
			<stop stop-color="#464DA0" offset="1"/>
			<stop stop-color="#71297E" offset="1"/>
		</linearGradient>
		<path class="st5" d="m13.1 58.7c-0.7 0.9-0.7 2.1-0.1 3 0.1 0.1 0.1 0.2 0.2 0.2 0.8 0.8 2 1 3 0.4l1.1-0.8v-6.1l-3.9 2.9c0 0.1-0.2 0.2-0.3 0.4z"/>
		<linearGradient id="a" x1="17.746" x2="23.552" y1="45.89" y2="45.89" gradientUnits="userSpaceOnUse">
			<stop stop-color="#663C97" offset="0"/>
			<stop stop-color="#464DA0" offset="1"/>
			<stop stop-color="#71297E" offset="1"/>
		</linearGradient>
		<path class="st6" d="m22.9 25.8c-0.3-1-1.2-1.7-2.2-1.7h-0.3c-1.1 0.2-2 1.1-2 2.2v9.3c0 1.9-0.1 11.3-0.1 19.1v6.1 4.6c0 1.3 1 2.3 2.3 2.3s2.3-1 2.3-2.3v-7.9-6.1c0.1-9.7 0.1-21.2 0.1-25.1 0-0.1-0.1-0.3-0.1-0.5z"/>
</svg>
