<?xml version="1.0" encoding="UTF-8"?>
<svg enable-background="new 0 0 595.3 841.9" version="1.1" viewBox="0 0 595.3 841.9" xml:space="preserve" xmlns="http://www.w3.org/2000/svg">
<style type="text/css">
	.st0{fill:#FFFFFF;}
</style>
	<path class="st0" d="m93.7 825.4c0 2.7-0.8 4.8-2.4 6.3s-3.9 2.2-6.7 2.2h-11.8v-31h11.4c1.7 0 3.3 0.3 4.7 1 1.4 0.6 2.4 1.6 3.2 2.8s1.2 2.7 1.2 4.3-0.4 3.1-1.3 4.3c-0.9 1.3-2.1 2.1-3.6 2.6 1.7 0.6 3 1.5 3.9 2.8s1.4 2.9 1.4 4.7zm-2.9-14.5c0-1.4-0.3-2.5-0.9-3.4s-1.4-1.6-2.5-2c-1-0.4-2.2-0.6-3.5-0.6h-8.8v12h8.8c2 0 3.7-0.5 5-1.5s1.9-2.5 1.9-4.5zm0.5 14.5c0-1.3-0.3-2.5-0.9-3.4s-1.4-1.7-2.4-2.2-2.3-0.8-3.7-0.8h-9.1v12.7h9.1c1.4 0 2.7-0.3 3.7-0.8s1.9-1.2 2.4-2.2c0.6-0.9 0.9-2 0.9-3.3z"/>
	<path class="st0" d="m119.7 833.8h-2.4v-31h2.4v31z"/>
	<path class="st0" d="m161.9 804.9h-9.3v29h-2.4v-29h-9.2v-2.1h20.9v2.1z"/>
	<path class="st0" d="m203.2 825c-0.3 1.9-1 3.5-2 4.9s-2.2 2.4-3.7 3.1-3.1 1.1-4.9 1.1c-1.5 0-2.9-0.3-4.2-0.8s-2.5-1.3-3.5-2.3c-0.9-0.9-1.6-1.9-2-2.9s-0.6-2.2-0.7-3.5-0.1-3.4-0.1-6.2 0.1-4.9 0.1-6.2c0.1-1.3 0.4-2.5 0.7-3.5 0.4-1 1.1-2 2-2.9 1-1 2.2-1.8 3.5-2.3 1.3-0.6 2.8-0.8 4.2-0.8 1.8 0 3.5 0.4 4.9 1.1 1.5 0.7 2.7 1.8 3.7 3.1 1 1.4 1.6 3 1.9 4.9h-2.4c-0.5-2.2-1.4-3.9-2.9-5.1s-3.2-1.9-5.3-1.9c-1.1 0-2.2 0.2-3.2 0.6s-1.9 1-2.7 1.8c-0.6 0.6-1 1.1-1.3 1.7s-0.5 1.4-0.7 2.3-0.3 1.9-0.3 3.1-0.1 2.6-0.1 4.2c0 2.5 0 4.3 0.1 5.6s0.3 2.4 0.7 3.3c0.3 0.9 0.9 1.7 1.6 2.4 0.8 0.8 1.7 1.4 2.7 1.8s2.1 0.6 3.2 0.6c1.4 0 2.6-0.3 3.8-0.8 1.1-0.6 2.1-1.4 2.9-2.4 0.8-1.1 1.3-2.3 1.6-3.7h2.4z"/>
	<path class="st0" d="m246.7 818.3c0 2.8 0 4.9-0.1 6.2s-0.3 2.5-0.7 3.5-1.1 2-2 2.9c-1 1-2.2 1.8-3.5 2.3-1.3 0.6-2.8 0.8-4.2 0.8-1.5 0-2.9-0.3-4.2-0.8s-2.5-1.3-3.5-2.3c-0.9-0.9-1.6-1.9-2-2.9s-0.6-2.2-0.7-3.5-0.2-3.4-0.2-6.2 0.1-4.9 0.2-6.2 0.3-2.5 0.7-3.5 1.1-2 2-2.9c1-1 2.2-1.8 3.5-2.3 1.3-0.6 2.8-0.8 4.2-0.8 1.5 0 2.9 0.3 4.2 0.8 1.3 0.6 2.5 1.3 3.5 2.3 0.9 0.9 1.6 1.9 2 2.9s0.6 2.2 0.7 3.5c0 1.4 0.1 3.4 0.1 6.2zm-2.4 0c0-2.5-0.1-4.3-0.1-5.6-0.1-1.3-0.3-2.4-0.7-3.3-0.3-0.9-0.9-1.7-1.6-2.4-0.8-0.8-1.7-1.4-2.7-1.8s-2.1-0.6-3.2-0.6-2.2 0.2-3.2 0.6-1.9 1-2.7 1.8c-0.6 0.6-1 1.1-1.3 1.7s-0.5 1.4-0.7 2.3-0.3 1.9-0.3 3.1-0.1 2.6-0.1 4.2c0 2.5 0.1 4.3 0.1 5.6 0.1 1.3 0.3 2.4 0.7 3.3 0.3 0.9 0.9 1.7 1.6 2.4 0.8 0.8 1.7 1.4 2.7 1.8s2.1 0.6 3.2 0.6 2.2-0.2 3.2-0.6 1.9-1 2.7-1.8c0.7-0.7 1.3-1.6 1.6-2.4 0.3-0.9 0.6-2 0.6-3.3 0.2-1.3 0.2-3.1 0.2-5.6z"/>
	<path class="st0" d="m272.7 833.8h-2.4v-31h2.4v31z"/>
	<path class="st0" d="m320.2 833.8h-2.4l-17.9-27v27h-2.4v-31h2.4l17.9 26.9v-26.9h2.4v31z"/>
	<path class="st0" d="m392.3 833.8h-2.4v-14.6h-16.2v14.6h-2.4v-31h2.4v14.4h16.2v-14.4h2.4v31z"/>
	<path class="st0" d="m438 823.8c0 2-0.5 3.8-1.4 5.3-0.9 1.6-2.2 2.8-3.8 3.7s-3.4 1.3-5.5 1.3c-2 0-3.9-0.4-5.5-1.3s-2.9-2.1-3.8-3.7-1.4-3.4-1.4-5.3v-21h2.4v20.7c0 1.7 0.3 3.2 1 4.5s1.7 2.3 2.9 3c1.3 0.7 2.7 1.1 4.3 1.1s3-0.4 4.3-1.1 2.2-1.7 2.9-3 1-2.8 1-4.5v-20.7h2.4v21z"/>
	<path class="st0" d="m480.6 825.5c0 1.3-0.2 2.5-0.7 3.5-0.5 1.1-1.2 2-2.1 2.7s-2 1.3-3.3 1.7-2.8 0.6-4.4 0.6c-1.5 0-2.8-0.1-4-0.4s-2.3-0.7-3.4-1.3c-1-0.6-2-1.4-2.9-2.3l1.7-1.7c0.9 0.9 1.8 1.7 2.7 2.2s1.8 0.9 2.8 1.1 2.1 0.3 3.3 0.3c1.6 0 3-0.3 4.2-0.8s2.1-1.2 2.8-2.2 1-2.1 1-3.4c0-1.9-0.6-3.4-1.7-4.4-0.5-0.5-1.1-0.8-1.7-1s-1.5-0.4-2.7-0.6l-3.6-0.6c-2.4-0.4-4.2-1.1-5.5-2.3-1.6-1.4-2.4-3.3-2.4-5.7 0-1.3 0.2-2.5 0.7-3.5 0.5-1.1 1.1-2 1.9-2.7s1.8-1.3 3-1.7 2.5-0.6 4-0.6c1.9 0 3.5 0.3 4.9 0.8s2.7 1.4 4.1 2.5l-1.5 1.5c-1.1-1-2.2-1.7-3.3-2.2s-2.5-0.7-4.2-0.7c-2.2 0-4 0.6-5.3 1.7s-1.9 2.7-1.9 4.7c0 1.8 0.5 3.2 1.6 4 0.6 0.5 1.3 0.9 2.1 1.2s1.7 0.6 2.5 0.7l3.3 0.5c1.4 0.2 2.6 0.5 3.4 0.8s1.5 0.7 2.2 1.3c0.9 0.7 1.6 1.6 2 2.6 0.2 1.3 0.4 2.5 0.4 3.7z"/>
	<path class="st0" d="m524.2 833.8h-2.4v-14.6h-16.2v14.6h-2.4v-31h2.4v14.4h16.2v-14.4h2.4v31z"/>
	<path class="st0" d="m223.6 282.1c-9.3 6.6-21.8 13.5-33.5 20.7v65.3c10.9-5.5 21.8-11 33.5-16.4v-69.6z"/>
	<path class="st0" d="m56.8 402.9c4.6 8.7 13.3 13.7 22.3 13.7 3.8 0 7.6-0.9 11.3-2.7 7.6-3.9 18.1-9.2 31.1-15.7 0.2-26.2 0.2-46.2 0.2-54.1v-2.1c-26.4 13.2-46.5 23.2-54.1 27.1-12.5 6.3-17.2 21.5-10.8 33.8z"/>
	<path class="st0" d="m233.2 396.3c0 13.8 11.2 25 24.9 25h0.3c13.9-0.2 25-11.2 25-25v-207c0-2.2-0.3-4.4-0.8-6.5-2.9-11-13-18.5-24.2-18.5-1.1 0-2.2 0.1-3.3 0.2-12.6 1.7-21.8 12.1-21.8 24.7v103.4c-0.1 34.7-0.1 69.2-0.1 103.7z"/>
	<path class="st0" d="m589.2 236c-1.5-12.1-9.6-18.8-21.8-22-9.7-2.5-19.7-3-29.9-3-23.8-0.1-47.4 3.8-70.8 8.3-33.8 6.5-67.2 15-100.1 25.2-9.9 3.1-19.8 6.3-29.7 9.4 0-0.1-0.1-0.2-0.1-0.4 0.6-0.5 1.2-1 1.7-1.5 19.1-16.3 38.2-32.7 57.4-48.9 42.3-35.7 80.2-74.9 115.7-116.2 9.6-11.2 18-23.2 22.2-36.9 6.4-20.5-0.8-33.3-21.6-39-8.7-2.4-17.8-2.9-27-3-19.8-0.1-39.4 3.2-58.8 7.1-20.2 4.2-49.5 11.6-69.3 17.6-31.7 9.7-70.9 26.4-105.9 40.5-17.8 6.9-36.8 15.9-54.6 22.8l-67.2 27.4c-89.2 38.2-115.2 10.7-115.2 10.7s0 0.1 0.1 0.3c-0.2-0.3-0.3-0.5-0.4-0.8-17.4 34.2-2.9 96.4 97.5 51.9 15.7-6.1 31.8-12.8 47.5-18.9 30.3-11.7 60.2-26.3 90.5-38.1 6.6-2.7 32.2-13.2 63.2-24.5 6.4-2.5 12.8-5 19.2-7.4 19.6-6.4 39.3-12.9 59.3-17.8 21.8-5.7 40.8-9 52.3-7.5 1.2 0.1 2.3 0.2 3.5 0.4 5.3 0.7 8.1 3.5 7.6 7.1-0.2 5.7-9.3 24.4-92.3 93.4-6 5.2-12.1 10.4-18.1 15.6-9.3 8-18.3 16-27.4 23.9l-7.7 6.7-0.1 0.1-3.6 3.2c-0.3 0.3-0.5 0.5-0.9 0.8 0 0-0.4 0.4-0.9 0.8l-7 5.3c-0.2 0.2-1.2 1.1-1.5 1.2v87.8c29.3-10 172.1-57.7 187.5-43.7 1.2 1.6 19.3 12.8-146.7 126.5-6.6 4.9-12.9 9.9-19.4 14.9l-24 18.3c-30 21.8-59.9 43.5-89.9 65.3-4.3 3.1-8.7 6.3-13 9.4-0.2 23.7-0.3 46.4-0.4 67.2l316.9-233.7c19.3-16.4 37.7-33.7 54.8-52.2 9.7-10.4 18.4-21.4 24.2-34 2.8-6.4 5-12.8 4.2-19.6z"/>
	<path class="st0" d="m73 595.5c-7.6 9.5-7.8 22.9-0.6 32.7 0.7 1 1.5 1.9 2.3 2.7 8.8 9.1 22.3 10.9 32.9 4.6l12.7-9.4c0.1-19 0.3-42.3 0.5-67.2l-42.8 31.8c-1.8 1.4-3.6 3-5 4.8z"/>
	<path class="st0" d="m181.1 231.6c-2.9-11-13-18.5-24.2-18.5-1.1 0-2.2 0.1-3.3 0.2-12.6 1.7-21.8 12.1-21.8 24.7v103.4c0 20.9-0.9 124.7-1.6 210.8-0.2 24.6-0.4 47.8-0.5 67.2-0.2 24.5-0.3 43-0.3 50.6 0 13.8 11.2 25 24.9 25h0.3c13.9-0.2 25-11.2 25-25 0-17.4 0.2-49 0.4-87.7 0.1-20.7 0.3-43.5 0.4-67.2 0.7-107.8 1.7-234.7 1.6-277.1 0-2.1-0.3-4.4-0.9-6.4z"/>
</svg>
