<?xml version="1.0" encoding="UTF-8"?>
<svg enable-background="new 0 0 595.3 701.9" version="1.1" viewBox="0 0 595.3 701.9" xml:space="preserve" xmlns="http://www.w3.org/2000/svg">
<style type="text/css">
	.st0{fill:#FFFFFF;}
</style>
	<path class="st0" d="m223.6 282.1c-9.3 6.6-21.8 13.5-33.5 20.7v65.3c10.9-5.5 21.8-11 33.5-16.4v-69.6z"/>
	<path class="st0" d="m56.8 402.9c4.6 8.7 13.3 13.7 22.3 13.7 3.8 0 7.6-0.9 11.3-2.7 7.6-3.9 18.1-9.2 31.1-15.7 0.2-26.2 0.2-46.2 0.2-54.1v-2.1c-26.4 13.2-46.5 23.2-54.1 27.1-12.5 6.3-17.2 21.5-10.8 33.8z"/>
	<path class="st0" d="m233.2 396.3c0 13.8 11.2 25 24.9 25h0.3c13.9-0.2 25-11.2 25-25v-207c0-2.2-0.3-4.4-0.8-6.5-2.9-11-13-18.5-24.2-18.5-1.1 0-2.2 0.1-3.3 0.2-12.6 1.7-21.8 12.1-21.8 24.7v103.4c-0.1 34.7-0.1 69.2-0.1 103.7z"/>
	<path class="st0" d="m589.2 236c-1.5-12.1-9.6-18.8-21.8-22-9.7-2.5-19.7-3-29.9-3-23.8-0.1-47.4 3.8-70.8 8.3-33.8 6.5-67.2 15-100.1 25.2-9.9 3.1-19.8 6.3-29.7 9.4 0-0.1-0.1-0.2-0.1-0.4 0.6-0.5 1.2-1 1.7-1.5 19.1-16.3 38.2-32.7 57.4-48.9 42.3-35.7 80.2-74.9 115.7-116.2 9.6-11.2 18-23.2 22.2-36.9 6.4-20.5-0.8-33.3-21.6-39-8.7-2.4-17.8-2.9-27-3-19.8-0.1-39.4 3.2-58.8 7.1-20.2 4.2-49.5 11.6-69.3 17.6-31.7 9.7-70.9 26.4-105.9 40.5-17.8 6.9-36.8 15.9-54.6 22.8l-67.2 27.4c-89.2 38.2-115.2 10.7-115.2 10.7s0 0.1 0.1 0.3c-0.2-0.3-0.3-0.5-0.4-0.8-17.4 34.2-2.9 96.4 97.5 51.9 15.7-6.1 31.8-12.8 47.5-18.9 30.3-11.7 60.2-26.3 90.5-38.1 6.6-2.7 32.2-13.2 63.2-24.5 6.4-2.5 12.8-5 19.2-7.4 19.6-6.4 39.3-12.9 59.3-17.8 21.8-5.7 40.8-9 52.3-7.5 1.2 0.1 2.3 0.2 3.5 0.4 5.3 0.7 8.1 3.5 7.6 7.1-0.2 5.7-9.3 24.4-92.3 93.4-6 5.2-12.1 10.4-18.1 15.6-9.3 8-18.3 16-27.4 23.9l-7.7 6.7-0.1 0.1-3.6 3.2c-0.3 0.3-0.5 0.5-0.9 0.8 0 0-0.4 0.4-0.9 0.8l-7 5.3c-0.2 0.2-1.2 1.1-1.5 1.2v87.8c29.3-10 172.1-57.7 187.5-43.7 1.2 1.6 19.3 12.8-146.7 126.5-6.6 4.9-12.9 9.9-19.4 14.9l-24 18.3c-30 21.8-59.9 43.5-89.9 65.3-4.3 3.1-8.7 6.3-13 9.4-0.2 23.7-0.3 46.4-0.4 67.2l316.9-233.7c19.3-16.4 37.7-33.7 54.8-52.2 9.7-10.4 18.4-21.4 24.2-34 2.8-6.4 5-12.8 4.2-19.6z"/>
	<path class="st0" d="m73 595.5c-7.6 9.5-7.8 22.9-0.6 32.7 0.7 1 1.5 1.9 2.3 2.7 8.8 9.1 22.3 10.9 32.9 4.6l12.7-9.4c0.1-19 0.3-42.3 0.5-67.2l-42.8 31.8c-1.8 1.4-3.6 3-5 4.8z"/>
	<path class="st0" d="m181.1 231.6c-2.9-11-13-18.5-24.2-18.5-1.1 0-2.2 0.1-3.3 0.2-12.6 1.7-21.8 12.1-21.8 24.7v103.4c0 20.9-0.9 124.7-1.6 210.8-0.2 24.6-0.4 47.8-0.5 67.2-0.2 24.5-0.3 43-0.3 50.6 0 13.8 11.2 25 24.9 25h0.3c13.9-0.2 25-11.2 25-25 0-17.4 0.2-49 0.4-87.7 0.1-20.7 0.3-43.5 0.4-67.2 0.7-107.8 1.7-234.7 1.6-277.1 0-2.1-0.3-4.4-0.9-6.4z"/>
</svg>
